<mxfile host="65bd71144e">
    <diagram id="nPKsFr49F95W4LltSwA-" name="第 1 页">
        <mxGraphModel dx="2995" dy="2174" grid="1" gridSize="10" guides="1" tooltips="1" connect="1" arrows="1" fold="1" page="1" pageScale="1" pageWidth="827" pageHeight="1169" math="0" shadow="0">
            <root>
                <mxCell id="0"/>
                <mxCell id="1" parent="0"/>
                <mxCell id="2" value="" style="rounded=0;whiteSpace=wrap;html=1;" vertex="1" parent="1">
                    <mxGeometry x="-750" y="-230" width="1100" height="460" as="geometry"/>
                </mxCell>
                <mxCell id="3" value="" style="rounded=0;whiteSpace=wrap;html=1;" vertex="1" parent="1">
                    <mxGeometry x="-663" y="-150" width="250" height="100" as="geometry"/>
                </mxCell>
                <mxCell id="4" value="functuon Peson" style="rounded=0;whiteSpace=wrap;html=1;" vertex="1" parent="1">
                    <mxGeometry x="-663" y="-150" width="250" height="50" as="geometry"/>
                </mxCell>
                <mxCell id="5" value="prototype" style="rounded=0;whiteSpace=wrap;html=1;" vertex="1" parent="1">
                    <mxGeometry x="-663" y="-100" width="133" height="50" as="geometry"/>
                </mxCell>
                <mxCell id="6" value="" style="rounded=0;whiteSpace=wrap;html=1;" vertex="1" parent="1">
                    <mxGeometry x="-533" y="-100" width="120" height="50" as="geometry"/>
                </mxCell>
                <mxCell id="10" value="Perosn的prototype对象" style="rounded=0;whiteSpace=wrap;html=1;" vertex="1" parent="1">
                    <mxGeometry x="-380" y="-150" width="250" height="50" as="geometry"/>
                </mxCell>
                <mxCell id="11" value="__proto__" style="rounded=0;whiteSpace=wrap;html=1;" vertex="1" parent="1">
                    <mxGeometry x="-380" y="-100" width="133" height="50" as="geometry"/>
                </mxCell>
                <mxCell id="12" value="" style="rounded=0;whiteSpace=wrap;html=1;" vertex="1" parent="1">
                    <mxGeometry x="-250" y="-100" width="120" height="50" as="geometry"/>
                </mxCell>
                <mxCell id="13" value="constructor" style="rounded=0;whiteSpace=wrap;html=1;" vertex="1" parent="1">
                    <mxGeometry x="-380" y="-50" width="133" height="50" as="geometry"/>
                </mxCell>
                <mxCell id="14" value="" style="rounded=0;whiteSpace=wrap;html=1;" vertex="1" parent="1">
                    <mxGeometry x="-250" y="-50" width="120" height="50" as="geometry"/>
                </mxCell>
                <mxCell id="15" value="running" style="rounded=0;whiteSpace=wrap;html=1;" vertex="1" parent="1">
                    <mxGeometry x="-380" width="133" height="50" as="geometry"/>
                </mxCell>
                <mxCell id="16" value="Funcion" style="rounded=0;whiteSpace=wrap;html=1;" vertex="1" parent="1">
                    <mxGeometry x="-250" width="120" height="50" as="geometry"/>
                </mxCell>
                <mxCell id="19" value="[Object:null prototype]{}" style="rounded=0;whiteSpace=wrap;html=1;" vertex="1" parent="1">
                    <mxGeometry x="-40" y="-150" width="250" height="50" as="geometry"/>
                </mxCell>
                <mxCell id="20" value="constructor" style="rounded=0;whiteSpace=wrap;html=1;" vertex="1" parent="1">
                    <mxGeometry x="-40" y="-100" width="130" height="50" as="geometry"/>
                </mxCell>
                <mxCell id="21" value="" style="rounded=0;whiteSpace=wrap;html=1;" vertex="1" parent="1">
                    <mxGeometry x="90" y="-100" width="120" height="50" as="geometry"/>
                </mxCell>
                <mxCell id="22" value="toString" style="rounded=0;whiteSpace=wrap;html=1;" vertex="1" parent="1">
                    <mxGeometry x="-40" y="-50" width="130" height="50" as="geometry"/>
                </mxCell>
                <mxCell id="23" value="Function" style="rounded=0;whiteSpace=wrap;html=1;" vertex="1" parent="1">
                    <mxGeometry x="90" y="-50" width="120" height="50" as="geometry"/>
                </mxCell>
                <mxCell id="24" value="...." style="rounded=0;whiteSpace=wrap;html=1;" vertex="1" parent="1">
                    <mxGeometry x="-40" width="130" height="50" as="geometry"/>
                </mxCell>
                <mxCell id="25" value="...." style="rounded=0;whiteSpace=wrap;html=1;" vertex="1" parent="1">
                    <mxGeometry x="90" width="120" height="50" as="geometry"/>
                </mxCell>
                <mxCell id="27" value="" style="endArrow=classic;html=1;entryX=0;entryY=0.5;entryDx=0;entryDy=0;" edge="1" parent="1" target="10">
                    <mxGeometry width="50" height="50" relative="1" as="geometry">
                        <mxPoint x="-463" y="-70" as="sourcePoint"/>
                        <mxPoint x="-413" y="-120" as="targetPoint"/>
                    </mxGeometry>
                </mxCell>
                <mxCell id="28" value="" style="endArrow=classic;html=1;entryX=0;entryY=0.25;entryDx=0;entryDy=0;" edge="1" parent="1" target="20">
                    <mxGeometry width="50" height="50" relative="1" as="geometry">
                        <mxPoint x="-215" y="-75" as="sourcePoint"/>
                        <mxPoint x="-165" y="-125" as="targetPoint"/>
                    </mxGeometry>
                </mxCell>
                <mxCell id="29" value="" style="endArrow=classic;html=1;" edge="1" parent="1">
                    <mxGeometry width="50" height="50" relative="1" as="geometry">
                        <mxPoint x="-225" y="-10" as="sourcePoint"/>
                        <mxPoint x="-420" y="-120" as="targetPoint"/>
                    </mxGeometry>
                </mxCell>
                <mxCell id="31" value="P1(Person的实例对象)" style="rounded=0;whiteSpace=wrap;html=1;" vertex="1" parent="1">
                    <mxGeometry x="-670" y="30" width="250" height="50" as="geometry"/>
                </mxCell>
                <mxCell id="32" value="__proto__" style="rounded=0;whiteSpace=wrap;html=1;" vertex="1" parent="1">
                    <mxGeometry x="-670" y="80" width="133" height="50" as="geometry"/>
                </mxCell>
                <mxCell id="33" value="" style="rounded=0;whiteSpace=wrap;html=1;" vertex="1" parent="1">
                    <mxGeometry x="-540" y="80" width="120" height="50" as="geometry"/>
                </mxCell>
                <mxCell id="34" value="" style="endArrow=classic;html=1;entryX=0.5;entryY=1;entryDx=0;entryDy=0;" edge="1" parent="1" target="6">
                    <mxGeometry width="50" height="50" relative="1" as="geometry">
                        <mxPoint x="-470" y="110" as="sourcePoint"/>
                        <mxPoint x="-420" y="60" as="targetPoint"/>
                    </mxGeometry>
                </mxCell>
                <mxCell id="35" value="name" style="rounded=0;whiteSpace=wrap;html=1;" vertex="1" parent="1">
                    <mxGeometry x="-670" y="130" width="133" height="50" as="geometry"/>
                </mxCell>
                <mxCell id="36" value="xiao su" style="rounded=0;whiteSpace=wrap;html=1;" vertex="1" parent="1">
                    <mxGeometry x="-540" y="130" width="120" height="50" as="geometry"/>
                </mxCell>
                <mxCell id="37" value="age" style="rounded=0;whiteSpace=wrap;html=1;" vertex="1" parent="1">
                    <mxGeometry x="-670" y="180" width="133" height="50" as="geometry"/>
                </mxCell>
                <mxCell id="38" value="18" style="rounded=0;whiteSpace=wrap;html=1;" vertex="1" parent="1">
                    <mxGeometry x="-540" y="180" width="120" height="50" as="geometry"/>
                </mxCell>
            </root>
        </mxGraphModel>
    </diagram>
</mxfile>